<svg xmlns="http://www.w3.org/2000/svg" xmlns:xlink="http://www.w3.org/1999/xlink" version="1.1" width="1000" height="1000" viewBox="0 0 1000 1000" xml:space="preserve">
<desc>Created with Fabric.js 3.5.0</desc>
<defs>
</defs>
<rect x="0" y="0" width="100%" height="100%" fill="#ffffff"/>
<g transform="matrix(0.7769 0 0 0.8169 499.5467 498.309)" id="837144">
<path style="stroke: rgb(0,0,0); stroke-width: 6; stroke-dasharray: none; stroke-linecap: butt; stroke-dashoffset: 0; stroke-linejoin: miter; stroke-miterlimit: 4; is-custom-font: none; font-file-url: none; fill: rgb(251,251,251); fill-rule: nonzero; opacity: 1;" transform=" translate(-640, -607)" d="m 0 0 h 1280 v 1214 h -1280 z" stroke-linecap="round"/>
</g>
<g transform="matrix(0.7769 0 0 0.8169 510.0468 623.6893)" id="792159">
<path style="stroke: rgb(0,0,0); stroke-width: 6; stroke-dasharray: none; stroke-linecap: butt; stroke-dashoffset: 0; stroke-linejoin: miter; stroke-miterlimit: 4; is-custom-font: none; font-file-url: none; fill: rgb(150,170,238); fill-rule: nonzero; opacity: 1;" transform=" translate(-27.5, -416.5)" d="m 0 0 h 49 l 21 2 l 31 6 l 23 7 l 25 10 l 28 14 l 19 12 l 13 10 l 11 9 l 14 12 l 14 14 l 8 10 l 7 8 l 13 19 l 9 14 l 10 18 l 11 25 l 10 31 l 4 18 l 4 25 l 1 10 v 47 l -3 24 l -5 26 l -6 21 l -10 25 l -11 23 l -9 15 l -13 19 l -11 14 l -22 24 l -7 7 l -11 9 l -15 12 l -17 11 l -17 10 l -25 12 l -24 9 l -22 6 l -25 5 l -13 2 l -9 7 l -10 7 l -1 5 l 8 7 l 15 11 l 1 4 l -1 3 l -11 8 l -10 7 l -1 6 l 9 6 l 11 7 l 4 4 l -1 9 l -24 72 l -15 43 l -9 26 l -4 6 l -5 -1 l -1 -6 v -333 h -4 v 248 l -1 81 h -5 l -10 -16 l -15 -27 l -14 -24 l -1 -4 v -165 h -8 l -27 -9 l -18 -8 l -21 -10 l -16 -10 l -16 -11 l -16 -13 l -10 -9 l -24 -24 l -10 -13 l -10 -14 l -4 -7 v -3 l -3 -1 l -8 -14 l -9 -17 l -10 -25 l -6 -19 l -5 -21 l -3 -19 l -1 -10 v -59 l 3 -21 l 6 -28 l 6 -19 l 9 -24 l 9 -19 l 10 -17 l 15 -22 l 10 -13 l 11 -12 l 7 -8 l 7 -7 l 8 -7 l 16 -13 l 16 -11 l 18 -11 l 23 -12 l 28 -11 l 24 -7 l 31 -6 z" stroke-linecap="round"/>
</g>
<g transform="matrix(0.7769 0 0 0.8169 509.2717 526.0674)" id="763480">
<path style="stroke: rgb(0,0,0); stroke-width: 6; stroke-dasharray: none; stroke-linecap: butt; stroke-dashoffset: 0; stroke-linejoin: miter; stroke-miterlimit: 4; is-custom-font: none; font-file-url: none; fill: rgb(250,251,251); fill-rule: nonzero; opacity: 1;" transform=" translate(-32.5, -242)" d="m 0 0 h 60 l 20 3 l 28 7 l 29 11 l 14 8 l 11 6 l 14 9 l 13 10 l 15 14 l 13 13 l 11 14 l 9 12 l 10 17 l 11 22 l 7 19 l 5 17 l 5 22 l 2 17 v 44 l -4 28 l -6 24 l -8 21 l -8 16 l -9 17 l -10 15 l -18 22 l -16 16 l -11 9 l -13 10 l -19 12 l -17 9 l -19 8 l -26 8 l -18 4 h -5 v -47 l 16 -2 l 23 -7 l 18 -8 l 18 -10 l 15 -11 l 14 -12 l 13 -14 l 8 -10 l 9 -14 l 12 -23 l 7 -19 l 6 -24 l 2 -14 v -39 l -4 -24 l -8 -24 l -7 -16 l -11 -20 l -10 -14 l -11 -12 l -14 -14 l -19 -14 l -15 -9 l -12 -6 l -33 -11 l -23 -4 l -8 -1 h -31 l -24 4 l -22 6 l -22 9 l -19 11 l -16 12 l -14 12 l -12 13 l -10 13 l -12 20 l -5 10 l -4 10 v 8 l 3 4 v 2 l 66 1 l 8 1 l 6 5 l 4 2 h 9 l 6 -4 l 5 -6 v -13 l -3 -5 l -6 -4 h -13 l -5 3 l -2 3 h -52 l 2 -6 l 11 -18 l 11 -14 l 17 -17 l 13 -10 l 11 -7 l 22 -11 l 21 -7 l 11 -3 l 16 -2 h 29 l 22 3 l 18 5 l 13 5 l 20 10 l 16 11 l 11 9 l 12 12 l 11 14 l 9 14 l 8 15 l 5 11 l 7 25 l 2 20 v 28 l -2 17 l -7 25 l -9 21 l -9 15 l -13 17 l -20 20 l -6 4 l -1 2 l -11 6 l -1 2 l -16 8 l -13 5 h -3 v 2 l -25 6 h -3 v -25 l 5 -2 l 16 -4 l 12 -4 l 16 -8 l 14 -9 l 14 -12 l 11 -12 l 8 -11 l 11 -21 l 8 -24 l 2 -12 v -38 l -5 -21 l -7 -18 l -8 -15 l -10 -14 l -11 -12 l -13 -11 l -16 -10 l -14 -7 l -19 -6 l -22 -4 l -50 -1 v 37 h 32 l 24 1 l 21 6 l 15 8 l 11 8 l 10 9 l 8 9 l 11 18 l 6 15 l 2 7 l 1 8 v 32 l -7 24 l -7 13 l -7 10 l -10 11 l -8 7 l -10 7 l -13 7 l -16 5 h -2 v 2 l -8 1 l -52 1 l -1 14 l -1 40 l -8 -1 l -27 -9 l -16 -7 l -17 -11 l -14 -11 l -11 -11 l -9 -11 l -10 -14 l -7 -13 v -4 h 51 l 5 5 l 3 2 h 10 l 7 -4 l 4 -6 v -12 l -4 -7 l -8 -4 h -8 l -6 4 l -3 3 l -71 1 l -6 4 l -1 2 v 10 l 10 22 l 9 14 l 9 12 l 9 11 l 12 12 l 11 9 l 17 12 l 16 9 l 3 1 v 54 l -10 -3 l -20 -8 l -23 -12 l -21 -14 l -14 -11 l -12 -11 l -13 -13 l -13 -17 l -12 -18 l -6 -10 l -8 -17 l -9 -24 l -6 -23 l -3 -11 l -2 -23 l -1 -5 v -34 l 4 -27 l 6 -25 l 8 -22 l 12 -25 l 11 -18 l 12 -16 l 9 -11 l 20 -20 l 17 -13 l 18 -12 l 18 -10 l 10 -5 l 10 -3 l 24 -8 l 20 -5 z" stroke-linecap="round"/>
</g>
<g transform="matrix(0.7769 0 0 0.8169 521.3162 670.6563)" id="884291">
<path style="stroke: rgb(0,0,0); stroke-width: 6; stroke-dasharray: none; stroke-linecap: butt; stroke-dashoffset: 0; stroke-linejoin: miter; stroke-miterlimit: 4; is-custom-font: none; font-file-url: none; fill: rgb(45,45,48); fill-rule: nonzero; opacity: 1;" transform=" translate(-23, -359)" d="m 0 0 h 31 l 27 4 l 20 6 l 19 7 l 14 7 l 14 9 l 13 10 l 10 9 l 16 16 l 11 15 l 12 21 l 6 13 l 8 22 l 4 18 l 2 13 v 39 l -3 19 l -7 25 l -6 15 l -13 25 l -11 15 l -11 12 l -7 8 l -11 10 l -18 13 l -22 12 l -20 8 l -21 6 l -12 1 l -1 51 l -2 5 l -12 9 l -9 7 l -3 1 v 5 l 9 8 l 15 10 l -1 5 l -7 6 l -12 8 l -2 3 l 1 4 l 11 9 l 11 8 l 1 4 l -1 3 l -11 8 l -10 7 l -1 6 l 9 6 l 11 7 l 4 4 l -1 9 l -24 72 l -15 43 l -9 26 l -4 6 l -5 -1 l -1 -6 v -333 h -4 v 248 l -1 81 h -5 l -10 -16 l -15 -27 l -14 -24 l 1 -277 l -6 -2 l -17 -9 l -16 -12 l -14 -12 l -12 -12 l -13 -17 l -9 -14 l -8 -16 l -4 -9 v -10 l 4 -5 l 4 -2 l 71 -1 l 7 -6 l 2 -1 h 8 l 9 5 l 4 7 v 12 l -4 6 l -5 4 l -3 1 h -10 l -7 -5 l -1 -2 l -51 -1 l 4 10 l 10 16 l 12 14 l 7 8 l 11 10 l 10 7 l 18 11 l 20 8 l 19 6 l 8 2 v -40 l 1 -14 l 1 -1 l 60 -1 v -2 l 11 -4 l 8 -3 l 15 -8 l 9 -7 l 11 -10 l 7 -9 l 8 -13 l 4 -8 l 6 -22 v -32 l -2 -12 l -6 -16 l -8 -14 l -8 -11 l -10 -10 l -14 -10 l -17 -9 l -19 -5 l -56 -2 v -37 h 50 l 22 4 l 24 8 l 16 9 l 11 8 l 14 12 l 10 11 l 10 15 l 9 17 l 7 21 l 3 14 v 38 l -3 16 l -8 22 l -11 21 l -11 13 l -11 12 l -11 9 l -14 9 l -16 8 l -22 7 l -10 2 l -1 25 l 24 -6 h 4 v -2 l 16 -6 l 13 -7 h 3 l 1 -3 l 8 -5 h 3 l 2 -4 l 8 -6 l 18 -18 l 13 -18 l 10 -18 l 7 -18 l 6 -22 l 2 -17 v -28 l -2 -20 l -7 -25 l -11 -23 l -10 -16 l -9 -11 l -11 -12 l -11 -10 l -16 -11 l -23 -12 l -15 -6 l -21 -5 l -17 -2 h -29 l -20 3 l -23 7 l -25 12 l -10 6 l -13 10 l -10 9 l -11 11 l -9 12 l -9 15 l -5 9 l 52 -1 l 5 -5 l 2 -1 h 13 l 7 5 l 3 5 v 13 l -7 8 l -5 3 h -9 l -8 -5 l -2 -2 l -8 -1 l -57 -1 l -9 -1 l -4 -6 v -8 l 7 -17 l 14 -23 l 13 -16 l 12 -13 l 14 -12 l 19 -13 l 14 -8 l 25 -10 l 24 -6 z" stroke-linecap="round"/>
</g>
<g transform="matrix(0.7769 0 0 0.8169 628.9229 610.6105)" id="535012">
<path style="stroke: rgb(0,0,0); stroke-width: 6; stroke-dasharray: none; stroke-linecap: butt; stroke-dashoffset: 0; stroke-linejoin: miter; stroke-miterlimit: 4; is-custom-font: none; font-file-url: none; fill: rgb(116,142,231); fill-rule: nonzero; opacity: 1;" transform=" translate(117.5, -193.5)" d="m 0 0 l 6 2 l 4 4 l 2 1 l 1 -6 l 2 3 l 6 22 l 5 31 l 1 10 v 47 l -3 24 l -5 26 l -6 21 l -10 25 l -11 23 l -9 15 l -13 19 l -11 14 l -22 24 l -7 7 l -11 9 l -15 12 l -17 11 l -17 10 l -25 12 l -24 9 l -22 6 l -25 5 l -12 1 v -5 l -11 -7 l -10 -8 l -3 -3 l 1 -5 l 13 -10 l 11 -8 l 1 -4 l 1 -51 h 1 v 46 l 23 -5 l 26 -8 l 21 -9 l 17 -9 l 21 -14 l 14 -11 l 15 -14 l 9 -9 l 8 -10 l 9 -12 l 10 -16 l 9 -16 l 8 -18 l 7 -19 l 6 -27 l 3 -22 v -44 l -2 -17 v -6 l 2 2 l 1 6 l 2 1 l 1 -11 l 3 -5 h 6 l 4 -1 l 3 1 v -2 l 3 -3 v -8 l 2 -3 l 1 -14 l 3 -1 z" stroke-linecap="round"/>
</g>
<g transform="matrix(0.7769 0 0 0.8169 606.7798 390.8727)" id="355325">
<path style="stroke: rgb(0,0,0); stroke-width: 6; stroke-dasharray: none; stroke-linecap: butt; stroke-dashoffset: 0; stroke-linejoin: miter; stroke-miterlimit: 4; is-custom-font: none; font-file-url: none; fill: rgb(88,115,205); fill-rule: nonzero; opacity: 1;" transform=" translate(-118, -130.5)" d="m 0 0 h 29 l 29 5 l 19 5 l 16 5 l 22 9 l 28 14 l 19 12 l 13 10 l 11 9 l 14 12 l 14 14 l 8 10 l 7 8 l 13 19 l 9 14 l 10 18 l 11 25 l 5 15 v 7 l -1 2 l -5 -2 l -2 -3 l -5 -2 l 1 8 l -2 1 l -1 14 l -2 5 v 6 l -2 3 h -2 v 2 h -6 l -4 1 l -3 -1 l -2 5 l -2 11 l -3 -1 l -1 -7 l -2 -1 l -6 -24 l -8 -23 l -12 -25 l -9 -16 l -8 -11 l -11 -14 l -11 -12 l -13 -13 l -11 -9 l -15 -11 l -14 -8 l -12 -7 l -11 -5 l -27 -10 l -31 -7 l -20 -3 l -55 -1 l 10 -8 l 8 -16 l 7 -4 l 12 -12 l 6 -2 v -3 h -2 l -1 -5 z" stroke-linecap="round"/>
</g>
<g transform="matrix(0.7769 0 0 0.8169 541.5206 534.6382)" id="708003">
<path style="stroke: rgb(0,0,0); stroke-width: 6; stroke-dasharray: none; stroke-linecap: butt; stroke-dashoffset: 0; stroke-linejoin: miter; stroke-miterlimit: 4; is-custom-font: none; font-file-url: none; fill: rgb(45,45,48); fill-rule: nonzero; opacity: 1;" transform=" translate(-62, -88.5)" d="m 0 0 h 45 l 16 3 l 13 5 l 16 10 l 13 12 l 6 8 l 9 16 l 4 13 l 2 9 v 25 l -3 14 l -7 16 l -9 13 l -9 10 l -10 8 l -12 7 l -14 5 l -15 3 h -45 z" stroke-linecap="round"/>
</g>
<g transform="matrix(0.7769 0 0 0.8169 373.7015 728.6472)" id="160262">
<path style="stroke: rgb(0,0,0); stroke-width: 6; stroke-dasharray: none; stroke-linecap: butt; stroke-dashoffset: 0; stroke-linejoin: miter; stroke-miterlimit: 4; is-custom-font: none; font-file-url: none; fill: rgb(66,93,180); fill-rule: nonzero; opacity: 1;" transform=" translate(-71, -208)" d="m 0 0 l 4 1 l 3 7 l 5 21 l 6 18 l 8 20 l 7 13 l 9 15 l 10 14 l 13 16 l 17 17 l 17 13 l 11 8 l 15 9 l 23 12 l 26 10 v -53 h 2 v 275 l -2 -2 v -165 h -8 l -27 -9 l -18 -8 l -21 -10 l -16 -10 l -16 -11 l -16 -13 l -10 -9 l -24 -24 l -10 -13 l -10 -14 l -4 -7 v -3 l -3 -1 l -8 -14 l -9 -17 l -5 -12 l -1 -10 l -1 -2 l -1 -13 v -10 l 3 -6 l 2 -8 l 5 -5 l 5 -9 l 3 -2 h 13 l 2 -2 z" stroke-linecap="round"/>
</g>
<g transform="matrix(0.7769 0 0 0.8169 562.885 326.746)" id="543246">
<path style="stroke: rgb(0,0,0); stroke-width: 6; stroke-dasharray: none; stroke-linecap: butt; stroke-dashoffset: 0; stroke-linejoin: miter; stroke-miterlimit: 4; is-custom-font: none; font-file-url: none; fill: rgb(66,93,180); fill-rule: nonzero; opacity: 1;" transform=" translate(-61.5, -52)" d="m 0 0 h 29 l 29 5 l 19 5 l 16 5 l 22 9 l 20 10 v 4 l 5 2 l 14 8 l 10 6 v 5 l -9 2 l -1 4 l 1 1 l -1 9 l -1 1 h -6 v 5 l -4 1 h -13 l 5 8 l 8 8 l 2 1 l 1 5 l -5 -1 l -12 -9 l -14 -8 l -12 -7 l -11 -5 l -27 -10 l -31 -7 l -20 -3 l -55 -1 l 10 -8 l 8 -16 l 7 -4 l 12 -12 l 6 -2 v -3 h -2 l -1 -5 z" stroke-linecap="round"/>
</g>
<g transform="matrix(0.7769 0 0 0.8169 399.7298 786.2329)" id="145846">
<path style="stroke: rgb(0,0,0); stroke-width: 6; stroke-dasharray: none; stroke-linecap: butt; stroke-dashoffset: 0; stroke-linejoin: miter; stroke-miterlimit: 4; is-custom-font: none; font-file-url: none; fill: rgb(88,115,205); fill-rule: nonzero; opacity: 1;" transform=" translate(69.5, -137.5)" d="m 0 0 h 2 v 275 l -2 -2 v -165 h -8 l -27 -9 l -18 -8 l -21 -10 l -16 -10 l -16 -11 l -16 -13 l -10 -9 l -9 -9 l 4 -2 l 5 -1 h 8 l 7 4 l 7 1 l 2 2 l 5 -1 v -2 l 6 -3 l -1 -16 l 2 -1 l 9 3 l 3 -1 l -2 -5 l 4 2 l 15 11 l 18 11 l 23 12 l 26 10 z" stroke-linecap="round"/>
</g>
<g transform="matrix(0.7769 0 0 0.8169 691.4695 235.2573)" id="569654">
<path style="stroke: rgb(0,0,0); stroke-width: 6; stroke-dasharray: none; stroke-linecap: butt; stroke-dashoffset: 0; stroke-linejoin: miter; stroke-miterlimit: 4; is-custom-font: none; font-file-url: none; fill: rgb(66,93,180); fill-rule: nonzero; opacity: 1;" transform=" translate(-7, -41)" d="m 0 0 h 14 l 14 5 l 8 7 l 6 8 l 4 8 l 1 4 v 17 l -3 8 l -6 10 l -10 9 l -8 4 l -11 2 l -11 -1 l -10 -4 l -8 -6 l -8 -10 l -5 -11 v -16 l 4 -11 l 5 -8 l 5 -6 l 10 -6 z" stroke-linecap="round"/>
</g>
<g transform="matrix(0.7769 0 0 0.8169 830.5407 546.0724)" id="943580">
<path style="stroke: rgb(0,0,0); stroke-width: 6; stroke-dasharray: none; stroke-linecap: butt; stroke-dashoffset: 0; stroke-linejoin: miter; stroke-miterlimit: 4; is-custom-font: none; font-file-url: none; fill: rgb(66,93,180); fill-rule: nonzero; opacity: 1;" transform=" translate(-7, -40.5)" d="m 0 0 h 12 l 11 3 l 9 6 l 8 8 l 7 14 v 18 l -4 9 l -6 10 l -9 7 l -10 5 l -4 1 h -13 l -13 -4 l -6 -4 l -7 -7 l -5 -8 l -3 -9 v -17 l 4 -10 l 6 -9 l 7 -6 l 9 -5 z" stroke-linecap="round"/>
</g>
<g transform="matrix(0.7769 0 0 0.8169 204.3321 383.9257)" id="383662">
<path style="stroke: rgb(0,0,0); stroke-width: 6; stroke-dasharray: none; stroke-linecap: butt; stroke-dashoffset: 0; stroke-linejoin: miter; stroke-miterlimit: 4; is-custom-font: none; font-file-url: none; fill: rgb(28,54,110); fill-rule: nonzero; opacity: 1;" transform=" translate(-10, -40)" d="m 0 0 h 18 l 13 5 l 10 9 l 4 6 v 4 h 2 l 3 7 v 19 l -6 12 l -9 10 l -9 6 l -6 2 h -19 l -11 -4 l -9 -7 l -7 -9 l -4 -13 v -13 l 3 -10 l 5 -9 l 8 -8 l 9 -5 z" stroke-linecap="round"/>
</g>
<g transform="matrix(0.7769 0 0 0.8169 327.4762 235.2573)" id="337104">
<path style="stroke: rgb(0,0,0); stroke-width: 6; stroke-dasharray: none; stroke-linecap: butt; stroke-dashoffset: 0; stroke-linejoin: miter; stroke-miterlimit: 4; is-custom-font: none; font-file-url: none; fill: rgb(66,93,180); fill-rule: nonzero; opacity: 1;" transform=" translate(-6.5, -41)" d="m 0 0 h 13 l 11 4 l 8 5 l 8 9 l 6 12 v 22 l -6 11 l -7 8 l -10 7 l -8 3 l -10 1 l -11 -2 l -10 -5 l -9 -9 l -6 -10 l -2 -4 v -21 l 4 -10 l 10 -11 l 5 -5 z" stroke-linecap="round"/>
</g>
<g transform="matrix(0.7769 0 0 0.8169 188.7934 545.6639)" id="401267">
<path style="stroke: rgb(0,0,0); stroke-width: 6; stroke-dasharray: none; stroke-linecap: butt; stroke-dashoffset: 0; stroke-linejoin: miter; stroke-miterlimit: 4; is-custom-font: none; font-file-url: none; fill: rgb(66,93,180); fill-rule: nonzero; opacity: 1;" transform=" translate(-7, -40)" d="m 0 0 h 13 l 10 3 l 9 6 l 6 5 l 6 10 l 3 8 v 15 l -3 10 l -7 11 l -9 7 l -11 5 h -21 l -12 -6 l -8 -7 l -7 -11 l -2 -8 v -15 l 4 -11 l 6 -9 l 7 -6 l 7 -4 z" stroke-linecap="round"/>
</g>
<g transform="matrix(0.7769 0 0 0.8169 815.002 383.9257)" id="583821">
<path style="stroke: rgb(0,0,0); stroke-width: 6; stroke-dasharray: none; stroke-linecap: butt; stroke-dashoffset: 0; stroke-linejoin: miter; stroke-miterlimit: 4; is-custom-font: none; font-file-url: none; fill: rgb(28,54,110); fill-rule: nonzero; opacity: 1;" transform=" translate(-9, -40)" d="m 0 0 h 17 l 13 5 l 10 9 l 8 14 v 23 l -7 14 l -7 7 l -5 3 h -3 v 2 l -8 3 h -18 l -9 -3 l -9 -7 l -6 -7 l -6 -11 v -22 l 8 -16 l 9 -8 l 10 -5 z" stroke-linecap="round"/>
</g>
<g transform="matrix(0.7769 0 0 0.8169 509.6671 189.9216)" id="801102">
<path style="stroke: rgb(0,0,0); stroke-width: 6; stroke-dasharray: none; stroke-linecap: butt; stroke-dashoffset: 0; stroke-linejoin: miter; stroke-miterlimit: 4; is-custom-font: none; font-file-url: none; fill: rgb(116,142,231); fill-rule: nonzero; opacity: 1;" transform=" translate(-5, -40.5)" d="m 0 0 h 10 l 12 4 l 8 5 l 6 5 l 6 10 l 3 8 v 17 l -5 11 l -7 9 l -9 7 l -10 4 l -5 1 h -8 l -13 -4 l -9 -6 l -8 -9 l -4 -8 l -2 -6 v -15 l 4 -11 l 6 -8 l 9 -8 l 11 -5 z" stroke-linecap="round"/>
</g>
<g transform="matrix(0.7769 0 0 0.8169 204.7206 708.2189)" id="214926">
<path style="stroke: rgb(0,0,0); stroke-width: 6; stroke-dasharray: none; stroke-linecap: butt; stroke-dashoffset: 0; stroke-linejoin: miter; stroke-miterlimit: 4; is-custom-font: none; font-file-url: none; fill: rgb(45,45,48); fill-rule: nonzero; opacity: 1;" transform=" translate(-13.5, -39)" d="m 0 0 h 24 l 9 3 l 11 10 l 6 10 l 3 9 v 13 l -4 12 l -8 10 l -7 6 l -8 4 l -3 1 h -19 l -10 -3 l -8 -6 l -7 -8 l -4 -7 l -1 -4 v -22 l 4 -10 l 9 -10 l 5 -4 z" stroke-linecap="round"/>
</g>
<g transform="matrix(0.7769 0 0 0.8169 815.002 708.6273)" id="300360">
<path style="stroke: rgb(0,0,0); stroke-width: 6; stroke-dasharray: none; stroke-linecap: butt; stroke-dashoffset: 0; stroke-linejoin: miter; stroke-miterlimit: 4; is-custom-font: none; font-file-url: none; fill: rgb(45,45,48); fill-rule: nonzero; opacity: 1;" transform=" translate(-11, -39.5)" d="m 0 0 h 22 l 10 4 l 8 6 l 6 9 l 4 8 v 23 l -4 9 l -7 9 l -8 6 l -10 4 l -4 1 h -12 l -12 -4 l -10 -7 l -6 -8 l -5 -10 v -22 l 4 -10 l 9 -10 l 9 -6 z" stroke-linecap="round"/>
</g>
<g transform="matrix(0.7769 0 0 0.8169 479.3659 313.2672)" id="269729">
<path style="stroke: rgb(0,0,0); stroke-width: 6; stroke-dasharray: none; stroke-linecap: butt; stroke-dashoffset: 0; stroke-linejoin: miter; stroke-miterlimit: 4; is-custom-font: none; font-file-url: none; fill: rgb(117,143,231); fill-rule: nonzero; opacity: 1;" transform=" translate(12, -36.5)" d="m 0 0 h 49 v 1 h -15 v 8 h 2 v 3 l -8 5 l -8 9 l -8 4 l -9 17 l -8 6 l 53 1 v 1 l -54 1 l -17 3 l -26 7 l -19 7 h -5 l 2 -4 l 5 -1 l 1 -3 l 7 -4 l 1 -6 v -2 h -2 v 2 h -2 l 2 -6 l 7 -12 l 4 -5 l 7 -7 l 4 -1 l 2 -3 l 5 -3 l 4 -3 l 6 -3 l 4 -5 l 9 -1 l 2 -4 z" stroke-linecap="round"/>
</g>
<g transform="matrix(0.7769 0 0 0.8169 301.4493 564.0442)" id="387642">
<path style="stroke: rgb(0,0,0); stroke-width: 6; stroke-dasharray: none; stroke-linecap: butt; stroke-dashoffset: 0; stroke-linejoin: miter; stroke-miterlimit: 4; is-custom-font: none; font-file-url: none; fill: rgb(116,142,231); fill-rule: nonzero; opacity: 1;" transform=" translate(18, -65.5)" d="m 0 0 l 4 1 l 2 32 l 2 15 v 12 l -4 -1 v 7 l -3 3 h -13 l -4 4 l -6 10 l -3 3 l -2 7 l -2 5 v 10 l 1 13 l 1 2 v 8 l -2 -3 l -9 -27 l -5 -21 l -1 -15 v -16 l 4 -5 l 2 -1 l 4 -10 l 3 -7 l 2 -4 l 6 -3 l 4 -7 l 5 -8 l 7 -1 l 5 2 z" stroke-linecap="round"/>
</g>
<g transform="matrix(0.7769 0 0 0.8169 313.4917 604.4784)" id="904875">
<path style="stroke: rgb(0,0,0); stroke-width: 6; stroke-dasharray: none; stroke-linecap: butt; stroke-dashoffset: 0; stroke-linejoin: miter; stroke-miterlimit: 4; is-custom-font: none; font-file-url: none; fill: rgb(88,115,205); fill-rule: nonzero; opacity: 1;" transform=" translate(6.5, -56)" d="m 0 0 l 4 1 l 3 7 l 5 21 l 9 27 h -3 v 2 h -2 v 6 l -3 3 l -13 1 l -2 5 l -4 5 h -2 l -2 11 v 18 l -1 5 l -3 -3 l -12 -23 l -5 -12 l -1 -10 l -1 -2 l -1 -13 v -10 l 3 -6 l 2 -8 l 5 -5 l 5 -9 l 3 -2 h 13 l 2 -2 z" stroke-linecap="round"/>
</g>
<g transform="matrix(0.7769 0 0 0.8169 383.8027 531.3679)" id="222481">
<path style="stroke: rgb(0,0,0); stroke-width: 6; stroke-dasharray: none; stroke-linecap: butt; stroke-dashoffset: 0; stroke-linejoin: miter; stroke-miterlimit: 4; is-custom-font: none; font-file-url: none; fill: rgb(44,45,48); fill-rule: nonzero; opacity: 1;" transform=" translate(51, -17.5)" d="m 0 0 h 9 l 7 4 l 4 5 l 1 3 v 10 l -3 6 l -6 5 l -5 2 h -7 l -8 -5 l -1 -1 h -106 l -6 -3 l -2 -4 v -9 l 5 -5 l 108 -1 l 7 -6 z" stroke-linecap="round"/>
</g>
<g transform="matrix(0.7769 0 0 0.8169 525.2053 306.732)" id="967340">
<path style="stroke: rgb(0,0,0); stroke-width: 6; stroke-dasharray: none; stroke-linecap: butt; stroke-dashoffset: 0; stroke-linejoin: miter; stroke-miterlimit: 4; is-custom-font: none; font-file-url: none; fill: rgb(88,115,205); fill-rule: nonzero; opacity: 1;" transform=" translate(-13, -27.5)" d="m 0 0 h 29 l 29 5 l 9 2 l -1 2 l -10 3 l -3 5 l -5 4 l -7 2 l -2 6 l -4 4 l -3 13 l -8 5 l 2 4 l -12 -1 l -55 -1 l 10 -8 l 8 -16 l 7 -4 l 12 -12 l 6 -2 v -3 h -2 l -1 -5 z" stroke-linecap="round"/>
</g>
<g transform="matrix(0.7769 0 0 0.8169 509.2788 74.7439)" id="814482">
<path style="stroke: rgb(0,0,0); stroke-width: 6; stroke-dasharray: none; stroke-linecap: butt; stroke-dashoffset: 0; stroke-linejoin: miter; stroke-miterlimit: 4; is-custom-font: none; font-file-url: none; fill: rgb(66,93,180); fill-rule: nonzero; opacity: 1;" transform=" translate(-6.5, -30.5)" d="m 0 0 h 12 l 9 3 l 8 5 l 8 11 l 1 3 v 16 l -6 12 l -8 7 l -10 4 h -15 l -7 -3 l -8 -5 l -7 -11 l -2 -3 v -16 l 4 -9 l 5 -6 l 11 -7 z" stroke-linecap="round"/>
</g>
<g transform="matrix(0.7769 0 0 0.8169 104.108 700.0499)" id="937295">
<path style="stroke: rgb(0,0,0); stroke-width: 6; stroke-dasharray: none; stroke-linecap: butt; stroke-dashoffset: 0; stroke-linejoin: miter; stroke-miterlimit: 4; is-custom-font: none; font-file-url: none; fill: rgb(117,143,231); fill-rule: nonzero; opacity: 1;" transform=" translate(-7, -30)" d="m 0 0 h 13 l 10 4 l 7 6 l 5 8 l 2 5 v 13 l -4 9 l -5 7 l -9 6 l -5 2 h -15 l -8 -4 l -8 -7 l -5 -8 l -1 -3 v -15 l 4 -9 l 7 -8 l 7 -4 z" stroke-linecap="round"/>
</g>
<g transform="matrix(0.7769 0 0 0.8169 304.1685 797.2562)" id="334860">
<path style="stroke: rgb(0,0,0); stroke-width: 6; stroke-dasharray: none; stroke-linecap: butt; stroke-dashoffset: 0; stroke-linejoin: miter; stroke-miterlimit: 4; is-custom-font: none; font-file-url: none; fill: rgb(28,54,110); fill-rule: nonzero; opacity: 1;" transform=" translate(-9.5, -30)" d="m 0 0 h 18 l 10 5 l 6 7 l 5 8 v 18 l -7 13 l -8 6 l -7 3 h -15 l -7 -3 l -8 -7 l -6 -9 l -1 -4 v -14 l 7 -14 l 9 -7 z" stroke-linecap="round"/>
</g>
<g transform="matrix(0.7769 0 0 0.8169 714.7779 797.2562)" id="275868">
<path style="stroke: rgb(0,0,0); stroke-width: 6; stroke-dasharray: none; stroke-linecap: butt; stroke-dashoffset: 0; stroke-linejoin: miter; stroke-miterlimit: 4; is-custom-font: none; font-file-url: none; fill: rgb(28,54,110); fill-rule: nonzero; opacity: 1;" transform=" translate(-9, -30)" d="m 0 0 h 18 l 10 5 l 8 10 l 2 7 v 17 l -5 10 l -8 7 l -9 4 h -15 l -8 -4 l -9 -9 l -4 -8 v -18 l 4 -9 l 5 -5 l 9 -6 z" stroke-linecap="round"/>
</g>
<g transform="matrix(0.7769 0 0 0.8169 915.6153 376.5735)" id="249542">
<path style="stroke: rgb(0,0,0); stroke-width: 6; stroke-dasharray: none; stroke-linecap: butt; stroke-dashoffset: 0; stroke-linejoin: miter; stroke-miterlimit: 4; is-custom-font: none; font-file-url: none; fill: rgb(117,142,231); fill-rule: nonzero; opacity: 1;" transform=" translate(-8.5, -30)" d="m 0 0 h 16 l 9 4 l 6 5 l 6 10 l 2 7 v 8 l -4 10 l -8 9 l -6 4 l -9 3 h -8 l -9 -3 l -9 -7 l -6 -9 l -2 -6 v -11 l 4 -10 l 8 -9 z" stroke-linecap="round"/>
</g>
<g transform="matrix(0.7769 0 0 0.8169 931.154 537.4949)" id="597916">
<path style="stroke: rgb(0,0,0); stroke-width: 6; stroke-dasharray: none; stroke-linecap: butt; stroke-dashoffset: 0; stroke-linejoin: miter; stroke-miterlimit: 4; is-custom-font: none; font-file-url: none; fill: rgb(28,54,110); fill-rule: nonzero; opacity: 1;" transform=" translate(-7.5, -30)" d="m 0 0 h 12 l 10 4 l 6 4 l 7 11 l 2 5 v 13 l -6 12 l -5 5 l -8 5 l -3 1 h -16 l -9 -4 l -7 -7 l -5 -9 v -18 l 6 -12 l 7 -6 z" stroke-linecap="round"/>
</g>
<g transform="matrix(0.7769 0 0 0.8169 104.108 375.7567)" id="353948">
<path style="stroke: rgb(0,0,0); stroke-width: 6; stroke-dasharray: none; stroke-linecap: butt; stroke-dashoffset: 0; stroke-linejoin: miter; stroke-miterlimit: 4; is-custom-font: none; font-file-url: none; fill: rgb(116,142,231); fill-rule: nonzero; opacity: 1;" transform=" translate(-7, -30)" d="m 0 0 h 12 l 10 4 l 8 7 l 5 7 l 2 6 v 12 l -4 10 l -6 7 l -7 5 l -5 2 h -17 l -9 -5 l -7 -7 l -5 -10 v -14 l 4 -9 l 9 -10 z" stroke-linecap="round"/>
</g>
<g transform="matrix(0.7769 0 0 0.8169 640.9692 116.8122)" id="626511">
<path style="stroke: rgb(0,0,0); stroke-width: 6; stroke-dasharray: none; stroke-linecap: butt; stroke-dashoffset: 0; stroke-linejoin: miter; stroke-miterlimit: 4; is-custom-font: none; font-file-url: none; fill: rgb(117,142,231); fill-rule: nonzero; opacity: 1;" transform=" translate(-6, -30)" d="m 0 0 h 12 l 9 4 l 10 9 l 5 10 v 14 l -6 11 l -7 7 l -10 5 h -14 l -12 -6 l -7 -8 l -4 -8 v -15 l 4 -9 l 7 -8 l 9 -5 z" stroke-linecap="round"/>
</g>
<g transform="matrix(0.7769 0 0 0.8169 88.5693 537.9032)" id="684549">
<path style="stroke: rgb(0,0,0); stroke-width: 6; stroke-dasharray: none; stroke-linecap: butt; stroke-dashoffset: 0; stroke-linejoin: miter; stroke-miterlimit: 4; is-custom-font: none; font-file-url: none; fill: rgb(45,45,48); fill-rule: nonzero; opacity: 1;" transform=" translate(-8, -29.5)" d="m 0 0 h 16 l 10 5 l 8 9 l 4 9 v 14 l -5 10 l -5 6 l -9 5 l -4 1 h -15 l -9 -4 l -8 -8 l -4 -8 l -1 -3 v -12 l 3 -9 l 8 -9 l 9 -5 z" stroke-linecap="round"/>
</g>
<g transform="matrix(0.7769 0 0 0.8169 378.7541 116.8122)" id="922240">
<path style="stroke: rgb(0,0,0); stroke-width: 6; stroke-dasharray: none; stroke-linecap: butt; stroke-dashoffset: 0; stroke-linejoin: miter; stroke-miterlimit: 4; is-custom-font: none; font-file-url: none; fill: rgb(117,142,231); fill-rule: nonzero; opacity: 1;" transform=" translate(-6.5, -30)" d="m 0 0 h 11 l 10 3 l 8 7 l 5 8 l 3 9 v 8 l -4 10 l -6 7 l -9 6 l -5 2 h -13 l -9 -4 l -6 -4 l -6 -9 l -3 -7 v -10 l 3 -10 l 9 -10 z" stroke-linecap="round"/>
</g>
<g transform="matrix(0.7769 0 0 0.8169 915.6153 700.0499)" id="121092">
<path style="stroke: rgb(0,0,0); stroke-width: 6; stroke-dasharray: none; stroke-linecap: butt; stroke-dashoffset: 0; stroke-linejoin: miter; stroke-miterlimit: 4; is-custom-font: none; font-file-url: none; fill: rgb(117,143,231); fill-rule: nonzero; opacity: 1;" transform=" translate(-6.5, -30)" d="m 0 0 h 12 l 10 4 l 7 6 l 5 8 l 3 8 v 8 l -4 10 l -5 7 l -8 6 l -6 3 h -14 l -9 -4 l -8 -7 l -5 -8 l -2 -4 v -12 l 4 -10 l 5 -7 l 7 -5 z" stroke-linecap="round"/>
</g>
<g transform="matrix(0.7769 0 0 0.8169 202.3901 191.5548)" id="753606">
<path style="stroke: rgb(0,0,0); stroke-width: 6; stroke-dasharray: none; stroke-linecap: butt; stroke-dashoffset: 0; stroke-linejoin: miter; stroke-miterlimit: 4; is-custom-font: none; font-file-url: none; fill: rgb(45,45,48); fill-rule: nonzero; opacity: 1;" transform=" translate(-9.5, -29.5)" d="m 0 0 h 18 l 10 5 l 8 8 l 3 7 v 18 l -6 11 l -8 7 l -7 3 h -15 l -8 -3 l -10 -9 l -4 -7 l -1 -4 v -13 l 4 -9 l 4 -6 l 8 -6 z" stroke-linecap="round"/>
</g>
<g transform="matrix(0.7769 0 0 0.8169 816.5562 191.5548)" id="61089">
<path style="stroke: rgb(0,0,0); stroke-width: 6; stroke-dasharray: none; stroke-linecap: butt; stroke-dashoffset: 0; stroke-linejoin: miter; stroke-miterlimit: 4; is-custom-font: none; font-file-url: none; fill: rgb(45,45,48); fill-rule: nonzero; opacity: 1;" transform=" translate(-9, -29.5)" d="m 0 0 h 18 l 8 4 l 5 4 l 6 9 l 1 3 v 19 l -5 9 l -8 7 l -9 4 h -14 l -9 -4 l -6 -5 l -6 -9 l -1 -2 v -19 l 4 -8 l 4 -5 z" stroke-linecap="round"/>
</g>
<g transform="matrix(0.7769 0 0 0.8169 830.5414 283.8597)" id="846713">
<path style="stroke: rgb(0,0,0); stroke-width: 6; stroke-dasharray: none; stroke-linecap: butt; stroke-dashoffset: 0; stroke-linejoin: miter; stroke-miterlimit: 4; is-custom-font: none; font-file-url: none; fill: rgb(117,143,231); fill-rule: nonzero; opacity: 1;" transform=" translate(-5, -20.5)" d="m 0 0 h 9 l 8 4 l 6 6 l 2 6 v 8 l -4 8 l -5 5 l -5 3 l -9 1 l -7 -3 l -6 -5 l -4 -8 v -9 l 4 -8 l 8 -7 z" stroke-linecap="round"/>
</g>
<g transform="matrix(0.7769 0 0 0.8169 188.7941 283.8596)" id="877151">
<path style="stroke: rgb(0,0,0); stroke-width: 6; stroke-dasharray: none; stroke-linecap: butt; stroke-dashoffset: 0; stroke-linejoin: miter; stroke-miterlimit: 4; is-custom-font: none; font-file-url: none; fill: rgb(28,54,111); fill-rule: nonzero; opacity: 1;" transform=" translate(-9, -19.5)" d="m 0 0 h 17 l 10 9 l 1 3 v 15 l -5 7 l -7 5 h -14 l -8 -6 l -4 -6 v -16 l 9 -10 z" stroke-linecap="round"/>
</g>
<g transform="matrix(0.7769 0 0 0.8169 531.4219 724.148)" id="81581">
<path style="stroke: rgb(0,0,0); stroke-width: 6; stroke-dasharray: none; stroke-linecap: butt; stroke-dashoffset: 0; stroke-linejoin: miter; stroke-miterlimit: 4; is-custom-font: none; font-file-url: none; fill: rgb(85,112,202); fill-rule: nonzero; opacity: 1;" transform=" translate(8, -46.5)" d="m 0 0 h 1 v 46 h 10 v 4 h -2 v 2 h -6 l -2 5 l -8 6 l 1 2 v 12 l -3 9 l 2 7 l -10 -6 l -10 -9 l 1 -5 l 13 -10 l 11 -8 l 1 -4 z" stroke-linecap="round"/>
</g>
<g transform="matrix(0.7769 0 0 0.8169 491.0219 727.0071)" id="353500">
<path style="stroke: rgb(0,0,0); stroke-width: 6; stroke-dasharray: none; stroke-linecap: butt; stroke-dashoffset: 0; stroke-linejoin: miter; stroke-miterlimit: 4; is-custom-font: none; font-file-url: none; fill: rgb(107,133,222); fill-rule: nonzero; opacity: 1;" transform=" translate(-2, -51)" d="m 0 0 l 5 1 v 50 l -1 51 h -5 v -101 z" stroke-linecap="round"/>
</g>
<g transform="matrix(0.7769 0 0 0.8169 370.207 538.719)" id="924412">
<path style="stroke: rgb(0,0,0); stroke-width: 6; stroke-dasharray: none; stroke-linecap: butt; stroke-dashoffset: 0; stroke-linejoin: miter; stroke-miterlimit: 4; is-custom-font: none; font-file-url: none; fill: rgb(92,118,203); fill-rule: nonzero; opacity: 1;" transform=" translate(-51.5, -2.5)" d="m 0 0 l 104 2 l -1 2 l -50 1 h -48 l -6 -3 z" stroke-linecap="round"/>
</g>
<g transform="matrix(0.7769 0 0 0.8169 516.2716 82.0953)" id="143885">
<path style="stroke: rgb(0,0,0); stroke-width: 6; stroke-dasharray: none; stroke-linecap: butt; stroke-dashoffset: 0; stroke-linejoin: miter; stroke-miterlimit: 4; is-custom-font: none; font-file-url: none; fill: rgb(92,119,208); fill-rule: nonzero; opacity: 1;" transform=" translate(19.5, -21.5)" d="m 0 0 l 2 1 l 1 3 v 16 l -6 12 l -8 7 l -10 4 h -15 l -6 -2 l 1 -3 h 24 l 5 -4 h 4 v -2 h 2 l 3 -12 l 2 -19 z" stroke-linecap="round"/>
</g>
<g transform="matrix(0.7769 0 0 0.8169 490.6334 705.7677)" id="981765">
<path style="stroke: rgb(0,0,0); stroke-width: 6; stroke-dasharray: none; stroke-linecap: butt; stroke-dashoffset: 0; stroke-linejoin: miter; stroke-miterlimit: 4; is-custom-font: none; font-file-url: none; fill: rgb(230,234,249); fill-rule: nonzero; opacity: 1;" transform=" translate(-1.5, -25)" d="m 0 0 h 4 v 50 l -5 -1 v -48 z" stroke-linecap="round"/>
</g>
<g transform="matrix(0.7769 0 0 0.8169 327.4767 205.8489)" id="212490">
<path style="stroke: rgb(0,0,0); stroke-width: 6; stroke-dasharray: none; stroke-linecap: butt; stroke-dashoffset: 0; stroke-linejoin: miter; stroke-miterlimit: 4; is-custom-font: none; font-file-url: none; fill: rgb(94,121,210); fill-rule: nonzero; opacity: 1;" transform=" translate(-6.5, -5)" d="m 0 0 h 13 l 11 4 l 7 4 l -3 2 l -12 -5 h -14 l -9 1 l -6 3 h -5 l 4 -4 z" stroke-linecap="round"/>
</g>
<g transform="matrix(0.7769 0 0 0.8169 693.8009 205.8489)" id="135420">
<path style="stroke: rgb(0,0,0); stroke-width: 6; stroke-dasharray: none; stroke-linecap: butt; stroke-dashoffset: 0; stroke-linejoin: miter; stroke-miterlimit: 4; is-custom-font: none; font-file-url: none; fill: rgb(95,122,210); fill-rule: nonzero; opacity: 1;" transform=" translate(-10, -5)" d="m 0 0 h 14 l 14 5 l 5 5 l -6 -1 l -6 -3 l -5 -1 h -13 l -6 1 h -10 l 4 -3 z" stroke-linecap="round"/>
</g>
<g transform="matrix(0.7769 0 0 0.8169 334.4694 684.9373)" id="300128">
<path style="stroke: rgb(0,0,0); stroke-width: 6; stroke-dasharray: none; stroke-linecap: butt; stroke-dashoffset: 0; stroke-linejoin: miter; stroke-miterlimit: 4; is-custom-font: none; font-file-url: none; fill: rgb(91,118,207); fill-rule: nonzero; opacity: 1;" transform=" translate(-12.5, -13.5)" d="m 0 0 h 4 l 1 2 l 6 3 l 3 7 l 5 4 l 6 9 l -2 2 l -13 -13 l -10 -13 z" stroke-linecap="round"/>
</g>
<g transform="matrix(0.7769 0 0 0.8169 689.9165 266.2964)" id="283748">
<path style="stroke: rgb(0,0,0); stroke-width: 6; stroke-dasharray: none; stroke-linecap: butt; stroke-dashoffset: 0; stroke-linejoin: miter; stroke-miterlimit: 4; is-custom-font: none; font-file-url: none; fill: rgb(95,121,209); fill-rule: nonzero; opacity: 1;" transform=" translate(-17, -3)" d="m 0 0 h 12 l 18 1 l 4 2 l -6 2 l -11 1 l -10 -2 l -7 -3 z" stroke-linecap="round"/>
</g>
<g transform="matrix(0.7769 0 0 0.8169 204.3328 353.7004)" id="726469">
<path style="stroke: rgb(0,0,0); stroke-width: 6; stroke-dasharray: none; stroke-linecap: butt; stroke-dashoffset: 0; stroke-linejoin: miter; stroke-miterlimit: 4; is-custom-font: none; font-file-url: none; fill: rgb(69,96,183); fill-rule: nonzero; opacity: 1;" transform=" translate(-10, -3)" d="m 0 0 h 18 l 13 5 v 1 l -13 -1 l -4 -3 l -1 1 l -12 1 l -7 2 h -5 l 3 -3 z" stroke-linecap="round"/>
</g>
<g transform="matrix(0.7769 0 0 0.8169 322.8152 265.0711)" id="207370">
<path style="stroke: rgb(0,0,0); stroke-width: 6; stroke-dasharray: none; stroke-linecap: butt; stroke-dashoffset: 0; stroke-linejoin: miter; stroke-miterlimit: 4; is-custom-font: none; font-file-url: none; fill: rgb(95,122,209); fill-rule: nonzero; opacity: 1;" transform=" translate(-17.5, -4.5)" d="m 0 0 h 4 v 2 l 10 1 l 14 1 l 7 2 l -3 2 l -10 1 l -11 -2 l -10 -5 z" stroke-linecap="round"/>
</g>
<g transform="matrix(0.7769 0 0 0.8169 821.6066 573.4357)" id="97445">
<path style="stroke: rgb(0,0,0); stroke-width: 6; stroke-dasharray: none; stroke-linecap: butt; stroke-dashoffset: 0; stroke-linejoin: miter; stroke-miterlimit: 4; is-custom-font: none; font-file-url: none; fill: rgb(97,123,211); fill-rule: nonzero; opacity: 1;" transform=" translate(-18.5, -7)" d="m 0 0 h 5 l 7 6 l 8 4 l 16 2 l 1 2 h -13 l -13 -4 l -6 -4 z" stroke-linecap="round"/>
</g>
<g transform="matrix(0.7769 0 0 0.8169 717.8861 776.0168)" id="793525">
<path style="stroke: rgb(0,0,0); stroke-width: 6; stroke-dasharray: none; stroke-linecap: butt; stroke-dashoffset: 0; stroke-linejoin: miter; stroke-miterlimit: 4; is-custom-font: none; font-file-url: none; fill: rgb(90,116,206); fill-rule: nonzero; opacity: 1;" transform=" translate(-13, -4)" d="m 0 0 h 18 l 10 5 l 2 3 h -4 l -8 -4 h -21 l -1 -2 z" stroke-linecap="round"/>
</g>
<g transform="matrix(0.7769 0 0 0.8169 490.245 747.4276)" id="138894">
<path style="stroke: rgb(0,0,0); stroke-width: 6; stroke-dasharray: none; stroke-linecap: butt; stroke-dashoffset: 0; stroke-linejoin: miter; stroke-miterlimit: 4; is-custom-font: none; font-file-url: none; fill: rgb(86,113,203); fill-rule: nonzero; opacity: 1;" transform=" translate(-1, -26)" d="m 0 0 l 3 1 l -1 33 l -1 18 h -2 z" stroke-linecap="round"/>
</g>
<g transform="matrix(0.7769 0 0 0.8169 190.7366 515.0301)" id="119275">
<path style="stroke: rgb(0,0,0); stroke-width: 6; stroke-dasharray: none; stroke-linecap: butt; stroke-dashoffset: 0; stroke-linejoin: miter; stroke-miterlimit: 4; is-custom-font: none; font-file-url: none; fill: rgb(96,122,211); fill-rule: nonzero; opacity: 1;" transform=" translate(-9.5, -2.5)" d="m 0 0 h 13 l 10 3 l 2 2 h -16 l -8 -1 v -2 h -2 v 2 l -5 -1 l 3 -2 z" stroke-linecap="round"/>
</g>
<g transform="matrix(0.7769 0 0 0.8169 509.6679 96.3897)" id="406893">
<path style="stroke: rgb(0,0,0); stroke-width: 6; stroke-dasharray: none; stroke-linecap: butt; stroke-dashoffset: 0; stroke-linejoin: miter; stroke-miterlimit: 4; is-custom-font: none; font-file-url: none; fill: rgb(91,118,207); fill-rule: nonzero; opacity: 1;" transform=" translate(14, -4)" d="m 0 0 m -1 1 m -1 1 m -25 1 l 24 1 l -1 3 l -3 1 h -15 l -6 -2 z" stroke-linecap="round"/>
</g>
<g transform="matrix(0.7769 0 0 0.8169 834.4262 515.4386)" id="416014">
<path style="stroke: rgb(0,0,0); stroke-width: 6; stroke-dasharray: none; stroke-linecap: butt; stroke-dashoffset: 0; stroke-linejoin: miter; stroke-miterlimit: 4; is-custom-font: none; font-file-url: none; fill: rgb(97,123,211); fill-rule: nonzero; opacity: 1;" transform=" translate(-12, -3)" d="m 0 0 h 12 l 11 3 l 4 3 l -14 -1 h -7 l -9 -3 z" stroke-linecap="round"/>
</g>
<g transform="matrix(0.7769 0 0 0.8169 631.258 320.6179)" id="533269">
<path style="stroke: rgb(0,0,0); stroke-width: 6; stroke-dasharray: none; stroke-linecap: butt; stroke-dashoffset: 0; stroke-linejoin: miter; stroke-miterlimit: 4; is-custom-font: none; font-file-url: none; fill: rgb(97,123,210); fill-rule: nonzero; opacity: 1;" transform=" translate(-14.5, -9.5)" d="m 0 0 l 6 2 l 18 11 l 5 4 v 2 l -6 -2 l -14 -9 l -9 -5 z" stroke-linecap="round"/>
</g>
<g transform="matrix(0.7769 0 0 0.8169 924.9389 518.2977)" id="937949">
<path style="stroke: rgb(0,0,0); stroke-width: 6; stroke-dasharray: none; stroke-linecap: butt; stroke-dashoffset: 0; stroke-linejoin: miter; stroke-miterlimit: 4; is-custom-font: none; font-file-url: none; fill: rgb(88,115,203); fill-rule: nonzero; opacity: 1;" transform=" translate(0.5, -6.5)" d="m 0 0 h 12 l 3 2 l -2 1 l -17 2 l -12 8 l 1 -4 l 6 -5 z" stroke-linecap="round"/>
</g>
<g transform="matrix(0.7769 0 0 0.8169 306.4996 775.6083)" id="961246">
<path style="stroke: rgb(0,0,0); stroke-width: 6; stroke-dasharray: none; stroke-linecap: butt; stroke-dashoffset: 0; stroke-linejoin: miter; stroke-miterlimit: 4; is-custom-font: none; font-file-url: none; fill: rgb(90,117,205); fill-rule: nonzero; opacity: 1;" transform=" translate(-12.5, -3.5)" d="m 0 0 h 18 l 10 5 l 1 2 l -6 -1 l -4 -2 l -23 -1 z" stroke-linecap="round"/>
</g>
<g transform="matrix(0.7769 0 0 0.8169 813.8374 352.8835)" id="420659">
<path style="stroke: rgb(0,0,0); stroke-width: 6; stroke-dasharray: none; stroke-linecap: butt; stroke-dashoffset: 0; stroke-linejoin: miter; stroke-miterlimit: 4; is-custom-font: none; font-file-url: none; fill: rgb(80,107,195); fill-rule: nonzero; opacity: 1;" transform=" translate(-7.5, -2)" d="m 0 0 h 17 l 6 2 l -3 1 h -16 l -1 1 h -11 l 2 -2 z" stroke-linecap="round"/>
</g>
<g transform="matrix(0.7769 0 0 0.8169 377.2009 669.8253)" id="507224">
<path style="stroke: rgb(0,0,0); stroke-width: 6; stroke-dasharray: none; stroke-linecap: butt; stroke-dashoffset: 0; stroke-linejoin: miter; stroke-miterlimit: 4; is-custom-font: none; font-file-url: none; fill: rgb(97,123,212); fill-rule: nonzero; opacity: 1;" transform=" translate(-10.5, -10)" d="m 0 0 l 7 6 l 14 14 l -5 -1 l -16 -16 z" stroke-linecap="round"/>
</g>
<g transform="matrix(0.7769 0 0 0.8169 539.5803 189.512)" id="810543">
<path style="stroke: rgb(0,0,0); stroke-width: 6; stroke-dasharray: none; stroke-linecap: butt; stroke-dashoffset: 0; stroke-linejoin: miter; stroke-miterlimit: 4; is-custom-font: none; font-file-url: none; fill: rgb(150,170,238); fill-rule: nonzero; opacity: 1;" transform=" translate(-0.5, -11)" d="m 0 0 l 2 3 v 17 l -2 2 l -1 -3 v -17 z" stroke-linecap="round"/>
</g>
<g transform="matrix(0.7769 0 0 0.8169 711.6708 819.7186)" id="61772">
<path style="stroke: rgb(0,0,0); stroke-width: 6; stroke-dasharray: none; stroke-linecap: butt; stroke-dashoffset: 0; stroke-linejoin: miter; stroke-miterlimit: 4; is-custom-font: none; font-file-url: none; fill: rgb(70,97,184); fill-rule: nonzero; opacity: 1;" transform=" translate(-9, -2.5)" d="m 0 0 l 14 2 l 6 2 v 1 h -15 l -7 -3 z" stroke-linecap="round"/>
</g>
<g transform="matrix(0.7769 0 0 0.8169 301.4498 819.7186)" id="534477">
<path style="stroke: rgb(0,0,0); stroke-width: 6; stroke-dasharray: none; stroke-linecap: butt; stroke-dashoffset: 0; stroke-linejoin: miter; stroke-miterlimit: 4; is-custom-font: none; font-file-url: none; fill: rgb(69,95,182); fill-rule: nonzero; opacity: 1;" transform=" translate(-9, -2.5)" d="m 0 0 l 20 4 v 1 h -15 l -7 -3 z" stroke-linecap="round"/>
</g>
<g transform="matrix(0.7769 0 0 0.8169 808.7876 524.4242)" id="641597">
<path style="stroke: rgb(0,0,0); stroke-width: 6; stroke-dasharray: none; stroke-linecap: butt; stroke-dashoffset: 0; stroke-linejoin: miter; stroke-miterlimit: 4; is-custom-font: none; font-file-url: none; fill: rgb(98,124,212); fill-rule: nonzero; opacity: 1;" transform=" translate(5, -7)" d="m 0 0 h 2 l -2 4 l -10 10 l -2 -1 l 6 -8 z" stroke-linecap="round"/>
</g>
<g transform="matrix(0.7769 0 0 0.8169 103.7202 352.475)" id="386081">
<path style="stroke: rgb(0,0,0); stroke-width: 6; stroke-dasharray: none; stroke-linecap: butt; stroke-dashoffset: 0; stroke-linejoin: miter; stroke-miterlimit: 4; is-custom-font: none; font-file-url: none; fill: rgb(150,170,238); fill-rule: nonzero; opacity: 1;" transform=" translate(-6.5, -1.5)" d="m 0 0 h 12 l 3 1 v 2 h -17 v -2 z" stroke-linecap="round"/>
</g>
<g transform="matrix(0.7769 0 0 0.8169 234.2454 385.1497)" id="926542">
<path style="stroke: rgb(0,0,0); stroke-width: 6; stroke-dasharray: none; stroke-linecap: butt; stroke-dashoffset: 0; stroke-linejoin: miter; stroke-miterlimit: 4; is-custom-font: none; font-file-url: none; fill: rgb(78,105,193); fill-rule: nonzero; opacity: 1;" transform=" translate(0.5, -10.5)" d="m 0 0 h 1 v 19 l -2 2 l -1 -8 l 1 -12 z" stroke-linecap="round"/>
</g>
<g transform="matrix(0.7769 0 0 0.8169 705.4554 206.6657)" id="219473">
<path style="stroke: rgb(0,0,0); stroke-width: 6; stroke-dasharray: none; stroke-linecap: butt; stroke-dashoffset: 0; stroke-linejoin: miter; stroke-miterlimit: 4; is-custom-font: none; font-file-url: none; fill: rgb(100,126,214); fill-rule: nonzero; opacity: 1;" transform=" translate(-8, -4)" d="m 0 0 l 9 2 l 7 5 l -4 1 l -12 -6 z" stroke-linecap="round"/>
</g>
<g transform="matrix(0.7769 0 0 0.8169 712.4478 774.383)" id="822767">
<path style="stroke: rgb(0,0,0); stroke-width: 6; stroke-dasharray: none; stroke-linecap: butt; stroke-dashoffset: 0; stroke-linejoin: miter; stroke-miterlimit: 4; is-custom-font: none; font-file-url: none; fill: rgb(68,95,182); fill-rule: nonzero; opacity: 1;" transform=" translate(-6, -2)" d="m 0 0 l 16 2 v 1 l -19 1 l -1 -2 z" stroke-linecap="round"/>
</g>
<g transform="matrix(0.7769 0 0 0.8169 700.017 780.1012)" id="854118">
<path style="stroke: rgb(0,0,0); stroke-width: 6; stroke-dasharray: none; stroke-linecap: butt; stroke-dashoffset: 0; stroke-linejoin: miter; stroke-miterlimit: 4; is-custom-font: none; font-file-url: none; fill: rgb(69,96,183); fill-rule: nonzero; opacity: 1;" transform=" translate(4, -6)" d="m 0 0 h 2 l -1 4 l -6 4 l -5 4 v -3 l 5 -5 z" stroke-linecap="round"/>
</g>
<g transform="matrix(0.7769 0 0 0.8169 301.4498 773.9746)" id="16504">
<path style="stroke: rgb(0,0,0); stroke-width: 6; stroke-dasharray: none; stroke-linecap: butt; stroke-dashoffset: 0; stroke-linejoin: miter; stroke-miterlimit: 4; is-custom-font: none; font-file-url: none; fill: rgb(71,98,185); fill-rule: nonzero; opacity: 1;" transform=" translate(-6, -1.5)" d="m 0 0 l 13 1 l 3 2 h -20 z" stroke-linecap="round"/>
</g>
<g transform="matrix(0.7769 0 0 0.8169 490.6335 731.498)" id="367585">
<path style="stroke: rgb(0,0,0); stroke-width: 6; stroke-dasharray: none; stroke-linecap: butt; stroke-dashoffset: 0; stroke-linejoin: miter; stroke-miterlimit: 4; is-custom-font: none; font-file-url: none; fill: rgb(80,107,196); fill-rule: nonzero; opacity: 1;" transform=" translate(-1.5, -6.5)" d="m 0 0 l 3 1 v 9 l -3 3 z" stroke-linecap="round"/>
</g>
<g transform="matrix(0.7769 0 0 0.8169 829.7648 577.9283)" id="109278">
<path style="stroke: rgb(0,0,0); stroke-width: 6; stroke-dasharray: none; stroke-linecap: butt; stroke-dashoffset: 0; stroke-linejoin: miter; stroke-miterlimit: 4; is-custom-font: none; font-file-url: none; fill: rgb(111,136,217); fill-rule: nonzero; opacity: 1;" transform=" translate(-8, -1.5)" d="m 0 0 l 15 1 l 1 2 h -13 z" stroke-linecap="round"/>
</g>
<g transform="matrix(0.7769 0 0 0.8169 289.4076 779.6928)" id="442822">
<path style="stroke: rgb(0,0,0); stroke-width: 6; stroke-dasharray: none; stroke-linecap: butt; stroke-dashoffset: 0; stroke-linejoin: miter; stroke-miterlimit: 4; is-custom-font: none; font-file-url: none; fill: rgb(73,99,186); fill-rule: nonzero; opacity: 1;" transform=" translate(3.5, -5.5)" d="m 0 0 l 2 2 l -9 9 l -2 -1 l 4 -6 z" stroke-linecap="round"/>
</g>
<g transform="matrix(0.7769 0 0 0.8169 182.9676 361.0522)" id="107191">
<path style="stroke: rgb(0,0,0); stroke-width: 6; stroke-dasharray: none; stroke-linecap: butt; stroke-dashoffset: 0; stroke-linejoin: miter; stroke-miterlimit: 4; is-custom-font: none; font-file-url: none; fill: rgb(66,93,180); fill-rule: nonzero; opacity: 1;" transform=" translate(5.5, -6)" d="m 0 0 v 3 l -9 9 h -2 l 2 -4 l 7 -7 z" stroke-linecap="round"/>
</g>
<g transform="matrix(0.7769 0 0 0.8169 726.4327 776.8336)" id="777913">
<path style="stroke: rgb(0,0,0); stroke-width: 6; stroke-dasharray: none; stroke-linecap: butt; stroke-dashoffset: 0; stroke-linejoin: miter; stroke-miterlimit: 4; is-custom-font: none; font-file-url: none; fill: rgb(70,97,185); fill-rule: nonzero; opacity: 1;" transform=" translate(-5, -3)" d="m 0 0 l 6 1 l 5 5 h -4 l -8 -4 z" stroke-linecap="round"/>
</g>
<g transform="matrix(0.7769 0 0 0.8169 917.5584 519.9314)" id="43231">
<path style="stroke: rgb(0,0,0); stroke-width: 6; stroke-dasharray: none; stroke-linecap: butt; stroke-dashoffset: 0; stroke-linejoin: miter; stroke-miterlimit: 4; is-custom-font: none; font-file-url: none; fill: rgb(84,111,200); fill-rule: nonzero; opacity: 1;" transform=" translate(1, -4.5)" d="m 0 0 h 5 l -5 4 l -7 5 l 1 -4 z" stroke-linecap="round"/>
</g>
<g transform="matrix(0.7769 0 0 0.8169 806.4569 352.8835)" id="923281">
<path style="stroke: rgb(0,0,0); stroke-width: 6; stroke-dasharray: none; stroke-linecap: butt; stroke-dashoffset: 0; stroke-linejoin: miter; stroke-miterlimit: 4; is-custom-font: none; font-file-url: none; fill: rgb(83,110,197); fill-rule: nonzero; opacity: 1;" transform=" translate(2, -2)" d="m 0 0 l 4 1 l -1 3 h -11 l 2 -2 z" stroke-linecap="round"/>
</g>
<g transform="matrix(0.7769 0 0 0.8169 831.3188 356.9679)" id="710546">
<path style="stroke: rgb(0,0,0); stroke-width: 6; stroke-dasharray: none; stroke-linecap: butt; stroke-dashoffset: 0; stroke-linejoin: miter; stroke-miterlimit: 4; is-custom-font: none; font-file-url: none; fill: rgb(66,93,180); fill-rule: nonzero; opacity: 1;" transform=" translate(-5, -4)" d="m 0 0 l 8 4 l 3 4 l -6 -2 l -6 -4 z" stroke-linecap="round"/>
</g>
</svg>