<svg width="182" height="182" viewBox="0 0 182 182" fill="none" xmlns="http://www.w3.org/2000/svg">
<g id="Group 513812">
<path id="Subtract" fill-rule="evenodd" clip-rule="evenodd" d="M95.1289 127.395L50.0746 91.4019L2.48828 138.988C0.888672 140.588 0 142.756 0 145.031V173.469C0 178.196 3.80352 182 8.53125 182H36.9688C41.6965 182 45.5 178.196 45.5 173.469V159.25H59.7188C64.4465 159.25 68.25 155.446 68.25 150.719V136.5H82.4688C84.7438 136.5 86.9121 135.611 88.5117 134.012L95.1289 127.395ZM57.0908 57.3294C59.7494 25.2264 86.6483 0 119.438 0C153.989 0 182 28.0109 182 62.5625C182 90.5319 163.645 114.215 138.323 122.224L57.0908 57.3294ZM143.71 38.2896C141.044 35.623 137.427 34.125 133.656 34.125C129.885 34.125 126.269 35.623 123.602 38.2896C120.936 40.9561 119.438 44.5727 119.438 48.3438C119.438 52.1148 120.936 55.7314 123.602 58.3979C126.269 61.0645 129.885 62.5625 133.656 62.5625C137.427 62.5625 141.044 61.0645 143.71 58.3979C146.377 55.7314 147.875 52.1148 147.875 48.3438C147.875 44.5727 146.377 40.9561 143.71 38.2896Z" fill="#CA4776"/>
<rect id="Rectangle 1745" x="13.0186" y="36.5854" width="173" height="7.95962" transform="rotate(38.3745 13.0186 36.5854)" fill="#CA4776"/>
</g>
</svg>
