<svg width="182" height="182" viewBox="0 0 182 182" fill="none" xmlns="http://www.w3.org/2000/svg">
<path id="Vector" d="M70.7778 0H10.1111C7.42948 0 4.85768 1.06527 2.96148 2.96148C1.06527 4.85768 0 7.42948 0 10.1111V70.7778C0 73.4594 1.06527 76.0312 2.96148 77.9274C4.85768 79.8236 7.42948 80.8889 10.1111 80.8889H70.7778C73.4594 80.8889 76.0312 79.8236 77.9274 77.9274C79.8236 76.0312 80.8889 73.4594 80.8889 70.7778V10.1111C80.8889 7.42948 79.8236 4.85768 77.9274 2.96148C76.0312 1.06527 73.4594 0 70.7778 0ZM171.889 0H111.222C108.541 0 105.969 1.06527 104.073 2.96148C102.176 4.85768 101.111 7.42948 101.111 10.1111V70.7778C101.111 73.4594 102.176 76.0312 104.073 77.9274C105.969 79.8236 108.541 80.8889 111.222 80.8889H171.889C174.571 80.8889 177.142 79.8236 179.039 77.9274C180.935 76.0312 182 73.4594 182 70.7778V10.1111C182 7.42948 180.935 4.85768 179.039 2.96148C177.142 1.06527 174.571 0 171.889 0ZM70.7778 101.111H10.1111C7.42948 101.111 4.85768 102.176 2.96148 104.073C1.06527 105.969 0 108.541 0 111.222V171.889C0 174.571 1.06527 177.142 2.96148 179.039C4.85768 180.935 7.42948 182 10.1111 182H70.7778C73.4594 182 76.0312 180.935 77.9274 179.039C79.8236 177.142 80.8889 174.571 80.8889 171.889V111.222C80.8889 108.541 79.8236 105.969 77.9274 104.073C76.0312 102.176 73.4594 101.111 70.7778 101.111ZM151.667 111.222H131.444V131.444H111.222V151.667H131.444V171.889H151.667V151.667H171.889V131.444H151.667V111.222Z" fill="#B269C4"/>
</svg>
