<svg width="194" height="182" viewBox="0 0 194 182" fill="none" xmlns="http://www.w3.org/2000/svg">
<path id="Vector" d="M87.4809 125.196C83.5708 127.684 80.6915 131.808 79.8739 136.5H34.125C30.7125 125.161 23.6387 115.492 16.6359 105.859C14.7875 103.335 12.9391 100.811 11.1617 98.2516C4.12344 88.1207 0 75.8215 0 62.5625C0 28.0109 28.011 0 62.5625 0C97.043 0 124.983 27.8687 125.125 62.3137C118.798 65.0508 115.172 71.4137 115.172 77.7055V78.0254C108.916 74.5773 100.42 75.1105 94.8391 81.118C91.5688 84.6371 88.654 88.5473 86.1657 92.8484C83.6774 97.1496 81.7579 101.629 80.336 106.214C77.9543 113.892 81.5446 121.393 87.4454 125.161L87.4809 125.196ZM34.125 147.875H81.6157C82.8598 151.145 84.3528 154.38 86.1657 157.473C87.1965 159.25 88.2985 160.992 89.5071 162.663C85.7036 173.895 75.0751 182 62.5625 182C46.8508 182 34.125 169.274 34.125 153.562V147.875ZM34.125 62.5625C34.125 46.8508 46.8508 34.125 62.5625 34.125C65.6907 34.125 68.25 31.5656 68.25 28.4375C68.25 25.3094 65.6907 22.75 62.5625 22.75C40.559 22.75 22.75 40.559 22.75 62.5625C22.75 65.6906 25.3094 68.25 28.4375 68.25C31.5656 68.25 34.125 65.6906 34.125 62.5625ZM126.547 77.5633C126.547 75.075 128.147 72.8355 130.564 72.3023C134.296 71.4492 138.206 70.9871 142.188 70.9871C146.169 70.9871 150.079 71.4492 153.811 72.3023C156.229 72.8355 157.828 75.075 157.828 77.5633V83.8551C157.828 86.6277 159.534 89.116 161.952 90.5023C164.369 91.8887 167.319 92.102 169.701 90.7156L174.606 87.9074C176.775 86.6633 179.476 86.9477 181.183 88.7605C183.884 91.6398 186.266 94.8746 188.327 98.4293C190.389 101.984 191.989 105.681 193.126 109.449C193.873 111.83 192.735 114.319 190.567 115.563L185.448 118.513C183.138 119.829 181.893 122.388 181.893 125.054C181.893 127.72 183.138 130.279 185.448 131.595L190.567 134.545C192.735 135.789 193.837 138.277 193.126 140.659C191.953 144.427 190.354 148.124 188.327 151.679C186.301 155.233 183.884 158.468 181.183 161.347C179.476 163.16 176.739 163.445 174.606 162.2L169.701 159.392C167.319 158.006 164.333 158.219 161.952 159.605C159.534 160.992 157.828 163.48 157.828 166.253V172.545C157.828 175.033 156.229 177.272 153.811 177.805C150.079 178.659 146.169 179.121 142.188 179.121C138.206 179.121 134.296 178.659 130.564 177.805C128.147 177.272 126.547 175.033 126.547 172.545V166.288C126.547 163.48 124.805 160.992 122.388 159.57C119.971 158.184 116.985 157.97 114.568 159.357L109.769 162.129C107.6 163.373 104.899 163.089 103.193 161.276C100.491 158.397 98.1094 155.162 96.0477 151.607C93.986 148.053 92.3864 144.356 91.2489 140.588C90.5024 138.206 91.6399 135.718 93.8083 134.474L98.7848 131.595C101.095 130.244 102.375 127.649 102.375 124.983C102.375 122.317 101.131 119.722 98.7848 118.371L93.8083 115.492C91.6399 114.248 90.538 111.759 91.2489 109.378C92.4219 105.61 93.986 101.913 96.0477 98.3582C98.1094 94.8035 100.491 91.5687 103.193 88.6895C104.899 86.8766 107.6 86.5922 109.769 87.8363L114.603 90.609C117.02 91.9953 120.006 91.782 122.424 90.3957C124.876 89.0094 126.583 86.4855 126.583 83.6773V77.5633H126.547ZM159.286 125.018C159.391 122.71 159.027 120.404 158.216 118.24C157.406 116.076 156.164 114.099 154.568 112.428C152.972 110.757 151.053 109.427 148.928 108.518C146.803 107.609 144.516 107.141 142.205 107.141C139.894 107.141 137.607 107.609 135.483 108.518C133.358 109.427 131.439 110.757 129.843 112.428C128.246 114.099 127.005 116.076 126.194 118.24C125.383 120.404 125.02 122.71 125.125 125.018C125.02 127.327 125.383 129.633 126.194 131.797C127.005 133.961 128.246 135.938 129.843 137.609C131.439 139.28 133.358 140.61 135.483 141.519C137.607 142.427 139.894 142.896 142.205 142.896C144.516 142.896 146.803 142.427 148.928 141.519C151.053 140.61 152.972 139.28 154.568 137.609C156.164 135.938 157.406 133.961 158.216 131.797C159.027 129.633 159.391 127.327 159.286 125.018Z" fill="#E3CC53"/>
</svg>
