<svg width="200" height="200" viewBox="0 0 200 200" fill="none" xmlns="http://www.w3.org/2000/svg">
<g id="Group 513799">
<circle id="Ellipse 30" cx="100" cy="100" r="100" fill="#697DC4"/>
<path id="Vector" d="M93.2804 69C93.5565 69 93.7804 69.2239 93.7804 69.5V93.2804C93.7804 93.5565 93.5565 93.7804 93.2804 93.7804H69.5C69.2239 93.7804 69 93.5565 69 93.2804V69.5C69 69.2239 69.2239 69 69.5 69H93.2804ZM87.5203 78.7601C87.5203 76.8271 85.9533 75.2601 84.0203 75.2601H78.7601C76.8271 75.2601 75.2601 76.8271 75.2601 78.7601V84.0203C75.2601 85.9533 76.8271 87.5203 78.7601 87.5203H84.0203C85.9533 87.5203 87.5203 85.9533 87.5203 84.0203V78.7601ZM93.2804 106.041C93.5565 106.041 93.7804 106.264 93.7804 106.541V130.321C93.7804 130.597 93.5565 130.821 93.2804 130.821H69.5C69.2239 130.821 69 130.597 69 130.321V106.541C69 106.264 69.2239 106.041 69.5 106.041H93.2804ZM87.5203 115.801C87.5203 113.868 85.9533 112.301 84.0203 112.301H78.7601C76.8271 112.301 75.2601 113.868 75.2601 115.801V121.061C75.2601 122.994 76.8271 124.561 78.7601 124.561H84.0203C85.9533 124.561 87.5203 122.994 87.5203 121.061V115.801ZM106.041 69.5C106.041 69.2239 106.264 69 106.541 69H130.321C130.597 69 130.821 69.2239 130.821 69.5V93.2804C130.821 93.5565 130.597 93.7804 130.321 93.7804H106.541C106.264 93.7804 106.041 93.5565 106.041 93.2804V69.5ZM115.801 75.2601C113.868 75.2601 112.301 76.8271 112.301 78.7601V84.0203C112.301 85.9533 113.868 87.5203 115.801 87.5203H121.061C122.994 87.5203 124.561 85.9533 124.561 84.0203V78.7601C124.561 76.8271 122.994 75.2601 121.061 75.2601H115.801ZM119.931 129.691C119.931 129.415 120.155 129.191 120.431 129.191H121.061C121.337 129.191 121.561 129.415 121.561 129.691V130.321C121.561 130.597 121.337 130.821 121.061 130.821H120.431C120.155 130.821 119.931 130.597 119.931 130.321V129.691ZM130.321 129.191C130.597 129.191 130.821 129.415 130.821 129.691V130.321C130.821 130.597 130.597 130.821 130.321 130.821H129.691C129.415 130.821 129.191 130.597 129.191 130.321V129.691C129.191 129.415 129.415 129.191 129.691 129.191H130.321ZM129.191 106.541C129.191 106.264 129.415 106.041 129.691 106.041H130.321C130.597 106.041 130.821 106.264 130.821 106.541V109.171V113.801V121.061C130.821 121.337 130.597 121.561 130.321 121.561H120.431C120.155 121.561 119.931 121.337 119.931 121.061V120.431C119.931 118.498 118.364 116.931 116.431 116.931H115.801C113.868 116.931 112.301 118.498 112.301 120.431V130.321C112.301 130.597 112.077 130.821 111.801 130.821H106.541C106.264 130.821 106.041 130.597 106.041 130.321V118.431V106.541C106.041 106.264 106.264 106.041 106.541 106.041H116.431C116.707 106.041 116.931 106.264 116.931 106.541V107.171C116.931 109.104 118.498 110.671 120.431 110.671H125.691C127.624 110.671 129.191 109.104 129.191 107.171V106.541Z" stroke="#FAFAFA" stroke-width="3"/>
</g>
</svg>
