<svg width="172" height="183" viewBox="0 0 172 183" fill="none" xmlns="http://www.w3.org/2000/svg">
<path id="Vector" d="M85.876 0C87.522 0 89.1679 0.357816 90.6707 1.03767L158.048 29.6272C165.919 32.9549 171.788 40.7195 171.752 50.0943C171.573 85.5896 156.974 150.533 95.3224 180.053C89.3468 182.916 82.4052 182.916 76.4297 180.053C14.778 150.533 0.179071 85.5896 0.000162752 50.0943C-0.0356189 40.7195 5.83256 32.9549 13.7045 29.6272L81.1171 1.03767C82.5841 0.357816 84.2301 0 85.876 0ZM85.876 23.9021V159.157C135.255 135.255 148.53 82.3335 148.852 50.5952L85.876 23.9021Z" fill="#57C3DB"/>
</svg>
